<svg width="103" height="102" viewBox="0 0 103 102" fill="none" xmlns="http://www.w3.org/2000/svg">
<path opacity="0.5" d="M26.8655 91.7918H25.75C21.7038 91.7918 19.6807 91.7918 18.4237 90.5348C17.1667 89.2778 17.1667 87.2547 17.1667 83.2085V78.4364C17.1667 76.2111 17.1667 75.0985 17.7382 74.1049C18.3098 73.1112 19.172 72.6097 20.8966 71.6067C32.25 65.0035 48.3737 61.2863 59.1351 67.7049C59.8582 68.1362 60.5084 68.6567 61.0642 69.2809C63.4593 71.9712 63.2847 76.0316 60.5243 78.4409C59.9414 78.9497 59.3201 79.3355 58.6944 79.4696C59.2085 79.4101 59.7014 79.3417 60.1716 79.2667C64.083 78.6428 67.3664 76.5527 70.3723 74.282L78.1281 68.4232C80.8624 66.3577 84.9205 66.3573 87.6553 68.4222C90.1172 70.2812 90.87 73.3421 89.3135 75.8369C87.4984 78.7464 84.9411 82.4686 82.4855 84.7429C80.0264 87.0205 76.3654 89.0538 73.3767 90.4964C70.0659 92.0944 66.4084 93.0151 62.6881 93.6174C55.143 94.8387 47.2794 94.6523 39.8109 93.1136C35.5888 92.2438 31.2038 91.7918 26.8655 91.7918Z" fill="url(#paint0_linear_1_131)"/>
<path d="M46.6129 14.4344C48.7874 10.5337 49.8746 8.58337 51.5 8.58337C53.1255 8.58337 54.2127 10.5337 56.3871 14.4344L56.9496 15.4436C57.5675 16.552 57.8765 17.1063 58.3582 17.4719C58.8399 17.8376 59.4398 17.9734 60.6397 18.2449L61.7321 18.492C65.9546 19.4474 68.0658 19.9251 68.5681 21.5403C69.0704 23.1555 67.6311 24.8386 64.7525 28.2047L64.0078 29.0756C63.1898 30.0322 62.7808 30.5104 62.5968 31.1021C62.4128 31.6938 62.4746 32.3319 62.5983 33.6082L62.7109 34.7701C63.1461 39.2612 63.3637 41.5068 62.0487 42.5051C60.7337 43.5033 58.7569 42.5932 54.8034 40.7729L53.7806 40.3019C52.6572 39.7847 52.0954 39.526 51.5 39.526C50.9046 39.526 50.3428 39.7847 49.2194 40.3019L48.1966 40.7729C44.2431 42.5932 42.2664 43.5033 40.9513 42.5051C39.6363 41.5068 39.8539 39.2612 40.2891 34.7701L40.4017 33.6082C40.5254 32.3319 40.5872 31.6938 40.4032 31.1021C40.2192 30.5104 39.8102 30.0322 38.9922 29.0756L38.2475 28.2047C35.3689 24.8386 33.9296 23.1555 34.4319 21.5403C34.9342 19.9251 37.0454 19.4474 41.2679 18.492L42.3603 18.2449C43.5602 17.9734 44.1601 17.8376 44.6418 17.4719C45.1235 17.1063 45.4325 16.552 46.0504 15.4436L46.6129 14.4344Z" fill="url(#paint1_linear_1_131)"/>
<path d="M83.3898 32.9672C84.477 31.0169 85.0206 30.0417 85.8333 30.0417C86.6461 30.0417 87.1897 31.0169 88.2769 32.9672L88.5582 33.4718C88.8671 34.026 89.0216 34.3031 89.2624 34.486C89.5033 34.6688 89.8033 34.7367 90.4032 34.8724L90.9494 34.996C93.0606 35.4737 94.1162 35.7126 94.3674 36.5202C94.6185 37.3278 93.8989 38.1693 92.4596 39.8524L92.0872 40.2878C91.6782 40.7661 91.4737 41.0052 91.3817 41.3011C91.2897 41.5969 91.3206 41.916 91.3825 42.5541L91.4388 43.1351C91.6564 45.3806 91.7652 46.5034 91.1077 47.0026C90.4502 47.5017 89.4618 47.0466 87.4851 46.1365L86.9736 45.901C86.4119 45.6424 86.1311 45.513 85.8333 45.513C85.5356 45.513 85.2548 45.6424 84.693 45.901L84.1816 46.1365C82.2049 47.0466 81.2165 47.5017 80.559 47.0026C79.9015 46.5034 80.0103 45.3806 80.2279 43.1351L80.2842 42.5541C80.346 41.916 80.377 41.5969 80.285 41.3011C80.193 41.0052 79.9885 40.7661 79.5795 40.2878L79.2071 39.8524C77.7678 38.1693 77.0481 37.3278 77.2993 36.5202C77.5504 35.7126 78.606 35.4737 80.7173 34.996L81.2635 34.8724C81.8634 34.7367 82.1634 34.6688 82.4043 34.486C82.6451 34.3031 82.7996 34.026 83.1085 33.4718L83.3898 32.9672Z" fill="url(#paint2_linear_1_131)"/>
<path d="M14.7231 32.9672C15.8103 31.0169 16.354 30.0417 17.1667 30.0417C17.9794 30.0417 18.523 31.0169 19.6102 32.9672L19.8915 33.4718C20.2004 34.026 20.3549 34.3031 20.5958 34.486C20.8366 34.6688 21.1366 34.7367 21.7365 34.8724L22.2827 34.996C24.394 35.4737 25.4496 35.7126 25.7007 36.5202C25.9519 37.3278 25.2322 38.1693 23.7929 39.8524L23.4206 40.2878C23.0116 40.7661 22.8071 41.0052 22.7151 41.3011C22.6231 41.5969 22.654 41.916 22.7158 42.5541L22.7721 43.1351C22.9897 45.3806 23.0985 46.5034 22.441 47.0026C21.7835 47.5017 20.7951 47.0466 18.8184 46.1365L18.307 45.901C17.7453 45.6424 17.4644 45.513 17.1667 45.513C16.869 45.513 16.5881 45.6424 16.0264 45.901L15.515 46.1365C13.5382 47.0466 12.5499 47.5017 11.8923 47.0026C11.2348 46.5034 11.3436 45.3806 11.5612 43.1351L11.6175 42.5541C11.6794 41.916 11.7103 41.5969 11.6183 41.3011C11.5263 41.0052 11.3218 40.7661 10.9128 40.2878L10.5404 39.8524C9.10113 38.1693 8.38148 37.3278 8.63263 36.5202C8.88378 35.7126 9.93939 35.4737 12.0506 34.996L12.5968 34.8724C13.1968 34.7367 13.4967 34.6688 13.7376 34.486C13.9784 34.3031 14.1329 34.026 14.4419 33.4718L14.7231 32.9672Z" fill="url(#paint3_linear_1_131)"/>
<defs>
<linearGradient id="paint0_linear_1_131" x1="53.6458" y1="64.375" x2="53.6458" y2="94.4167" gradientUnits="userSpaceOnUse">
<stop stop-color="#A380FF"/>
<stop offset="1" stop-color="#290781"/>
</linearGradient>
<linearGradient id="paint1_linear_1_131" x1="51.5" y1="8.58337" x2="51.5" y2="47.2084" gradientUnits="userSpaceOnUse">
<stop stop-color="#A380FF"/>
<stop offset="1" stop-color="#290781"/>
</linearGradient>
<linearGradient id="paint2_linear_1_131" x1="51.5" y1="8.58337" x2="51.5" y2="47.2084" gradientUnits="userSpaceOnUse">
<stop stop-color="#A380FF"/>
<stop offset="1" stop-color="#290781"/>
</linearGradient>
<linearGradient id="paint3_linear_1_131" x1="51.5" y1="8.58337" x2="51.5" y2="47.2084" gradientUnits="userSpaceOnUse">
<stop stop-color="#A380FF"/>
<stop offset="1" stop-color="#290781"/>
</linearGradient>
</defs>
</svg>
