<svg width="113" height="30" viewBox="0 0 113 30" fill="none" xmlns="http://www.w3.org/2000/svg">
<g clip-path="url(#clip0_1_2438)">
<path d="M7.7954 28.3384C9.66162 26.6037 9.75579 23.698 8.00575 21.8482C6.25571 19.9984 3.32415 19.905 1.45794 21.6397C-0.408277 23.3743 -0.502453 26.2801 1.24759 28.1299C2.99763 29.9797 5.92919 30.073 7.7954 28.3384Z" fill="#875BF8"/>
<path d="M18.9011 0.418701H10.6523C10.3676 0.418701 10.1769 0.711368 10.2918 0.971867L22.8621 29.464C22.8936 29.5354 22.9643 29.5815 23.0424 29.5815H32.3925C32.6772 29.5815 32.868 29.2889 32.7531 29.0284L20.6301 1.5414C20.3296 0.858618 19.65 0.418701 18.9011 0.418701Z" fill="#875BF8"/>
</g>
<path d="M54.4176 8.99825H58.9445V27.5509H54.4176L54.2136 25.2504C53.7065 26.079 53.0324 26.7531 52.1913 27.2726C51.3626 27.7797 50.3793 28.0332 49.2415 28.0332C47.8686 28.0332 46.5822 27.7735 45.3825 27.254C44.1828 26.7346 43.1253 26.0172 42.21 25.1019C41.3071 24.1867 40.5959 23.1292 40.0765 21.9294C39.5693 20.7297 39.3158 19.4434 39.3158 18.0705C39.3158 16.7471 39.557 15.504 40.0393 14.3414C40.5341 13.1788 41.2205 12.1584 42.0987 11.2802C42.9768 10.4021 43.9911 9.71561 45.1413 9.22088C46.2916 8.72614 47.5284 8.47877 48.8518 8.47877C50.0763 8.47877 51.1709 8.75088 52.1357 9.29509C53.1128 9.8393 53.9415 10.5319 54.6217 11.373L54.4176 8.99825ZM49.1301 23.6734C50.0949 23.6734 50.9483 23.4322 51.6904 22.9498C52.4325 22.4675 53.0138 21.8181 53.4343 21.0018C53.8549 20.1731 54.0651 19.264 54.0651 18.2746C54.0651 17.2727 53.8549 16.3636 53.4343 15.5473C53.0138 14.7186 52.4263 14.0631 51.6718 13.5807C50.9297 13.0984 50.0825 12.8572 49.1301 12.8572C48.1778 12.8572 47.3058 13.1046 46.5142 13.5993C45.735 14.0817 45.1104 14.731 44.6404 15.5473C44.1828 16.3636 43.954 17.2727 43.954 18.2746C43.954 19.2764 44.189 20.1855 44.659 21.0018C45.129 21.8181 45.7536 22.4675 46.5328 22.9498C47.3243 23.4322 48.1901 23.6734 49.1301 23.6734Z" fill="white"/>
<path d="M62.6414 8.99825H67.1682V27.5509H62.6414V8.99825ZM64.9419 6.60496C64.274 6.60496 63.7112 6.38851 63.2536 5.95561C62.796 5.51035 62.5672 4.95377 62.5672 4.28588C62.5672 3.63035 62.796 3.07996 63.2536 2.63469C63.7112 2.18943 64.2678 1.9668 64.9233 1.9668C65.5789 1.9668 66.1293 2.18943 66.5745 2.63469C67.0322 3.07996 67.261 3.63035 67.261 4.28588C67.261 4.95377 67.0384 5.51035 66.5931 5.95561C66.1478 6.38851 65.5974 6.60496 64.9419 6.60496Z" fill="white"/>
<path d="M71.5014 27.5509L71.4829 8.99825H76.0097L76.0283 10.6494C76.659 9.98153 77.4135 9.45588 78.2917 9.07246C79.1698 8.67667 80.116 8.47877 81.1302 8.47877C81.8105 8.47877 82.4908 8.57772 83.171 8.77561L81.39 13.3396C80.92 13.154 80.45 13.0613 79.98 13.0613C79.2502 13.0613 78.5823 13.2406 77.9763 13.5993C77.3826 13.9456 76.9064 14.4218 76.5477 15.0279C76.2014 15.6215 76.0283 16.2832 76.0283 17.013V27.5509H71.5014Z" fill="white"/>
<path d="M85.1799 8.99825H89.7068V27.5509H85.1799V8.99825ZM87.4804 6.60496C86.8126 6.60496 86.2498 6.38851 85.7922 5.95561C85.3345 5.51035 85.1057 4.95377 85.1057 4.28588C85.1057 3.63035 85.3345 3.07996 85.7922 2.63469C86.2498 2.18943 86.8064 1.9668 87.4619 1.9668C88.1174 1.9668 88.6678 2.18943 89.1131 2.63469C89.5707 3.07996 89.7995 3.63035 89.7995 4.28588C89.7995 4.95377 89.5769 5.51035 89.1316 5.95561C88.6864 6.38851 88.136 6.60496 87.4804 6.60496Z" fill="white"/>
<path d="M107.72 8.99825H112.247V27.5509H107.72L107.516 25.2504C107.009 26.079 106.335 26.7531 105.494 27.2726C104.665 27.7797 103.682 28.0332 102.544 28.0332C101.171 28.0332 99.8848 27.7735 98.6851 27.254C97.4853 26.7346 96.4278 26.0172 95.5126 25.1019C94.6097 24.1867 93.8985 23.1292 93.379 21.9294C92.8719 20.7297 92.6184 19.4434 92.6184 18.0705C92.6184 16.7471 92.8596 15.504 93.3419 14.3414C93.8367 13.1788 94.5231 12.1584 95.4013 11.2802C96.2794 10.4021 97.2936 9.71561 98.4439 9.22088C99.5942 8.72614 100.831 8.47877 102.154 8.47877C103.379 8.47877 104.473 8.75088 105.438 9.29509C106.415 9.8393 107.244 10.5319 107.924 11.373L107.72 8.99825ZM102.433 23.6734C103.397 23.6734 104.251 23.4322 104.993 22.9498C105.735 22.4675 106.316 21.8181 106.737 21.0018C107.157 20.1731 107.368 19.264 107.368 18.2746C107.368 17.2727 107.157 16.3636 106.737 15.5473C106.316 14.7186 105.729 14.0631 104.974 13.5807C104.232 13.0984 103.385 12.8572 102.433 12.8572C101.48 12.8572 100.608 13.1046 99.8168 13.5993C99.0376 14.0817 98.413 14.731 97.943 15.5473C97.4853 16.3636 97.2565 17.2727 97.2565 18.2746C97.2565 19.2764 97.4915 20.1855 97.9615 21.0018C98.4315 21.8181 99.0561 22.4675 99.8353 22.9498C100.627 23.4322 101.493 23.6734 102.433 23.6734Z" fill="white"/>
<defs>
<clipPath id="clip0_1_2438">
<rect width="33" height="29.1628" fill="white" transform="translate(0 0.418701)"/>
</clipPath>
</defs>
</svg>
