<svg width="54" height="54" viewBox="0 0 54 54" fill="none" xmlns="http://www.w3.org/2000/svg">
<g opacity="0.4">
<path d="M31.5 6.1875C35.7904 6.1875 38.8384 6.19109 41.1506 6.50196C43.4143 6.80631 44.7185 7.37706 45.6707 8.32928C46.7668 9.42534 47.2438 10.275 47.5081 11.7896C47.806 13.4968 47.8125 15.9321 47.8125 20.25C47.8125 21.182 48.568 21.9375 49.5 21.9375C50.432 21.9375 51.1875 21.182 51.1875 20.25L51.1875 20.0333C51.1876 15.9851 51.1877 13.2428 50.8329 11.2095C50.4382 8.94747 49.5972 7.48278 48.0572 5.9428C46.3734 4.25898 44.2383 3.51172 41.6003 3.15706C39.0371 2.81244 35.7619 2.81247 31.627 2.8125H31.5C30.568 2.8125 29.8125 3.56802 29.8125 4.5C29.8125 5.43198 30.568 6.1875 31.5 6.1875Z" fill="#A37FFF"/>
<path d="M4.50001 32.0625C5.43199 32.0625 6.18751 32.818 6.18751 33.75C6.18751 38.0679 6.194 40.5032 6.4919 42.2104C6.7562 43.725 7.23324 44.5747 8.32929 45.6707C9.28152 46.6229 10.5857 47.1937 12.8494 47.498C15.1617 47.8089 18.2097 47.8125 22.5 47.8125C23.432 47.8125 24.1875 48.568 24.1875 49.5C24.1875 50.432 23.432 51.1875 22.5 51.1875H22.3731C18.2381 51.1875 14.9629 51.1876 12.3997 50.8429C9.76176 50.4883 7.62663 49.741 5.94281 48.0572C4.40283 46.5172 3.56185 45.0525 3.16714 42.7905C2.81233 40.7572 2.8124 38.0149 2.8125 33.9668L2.81251 33.75C2.81251 32.818 3.56803 32.0625 4.50001 32.0625Z" fill="#A37FFF"/>
<path d="M49.5 32.0625C50.432 32.0625 51.1875 32.818 51.1875 33.75L51.1875 33.9667C51.1876 38.0149 51.1877 40.7572 50.8329 42.7905C50.4382 45.0525 49.5972 46.5172 48.0572 48.0572C46.3734 49.741 44.2383 50.4883 41.6003 50.8429C39.0371 51.1876 35.7619 51.1875 31.6269 51.1875H31.5C30.568 51.1875 29.8125 50.432 29.8125 49.5C29.8125 48.568 30.568 47.8125 31.5 47.8125C35.7904 47.8125 38.8384 47.8089 41.1506 47.498C43.4143 47.1937 44.7185 46.6229 45.6707 45.6707C46.7668 44.5747 47.2438 43.725 47.5081 42.2104C47.806 40.5032 47.8125 38.0679 47.8125 33.75C47.8125 32.818 48.568 32.0625 49.5 32.0625Z" fill="#A37FFF"/>
<path d="M22.3731 2.8125H22.5C23.432 2.8125 24.1875 3.56802 24.1875 4.5C24.1875 5.43198 23.432 6.1875 22.5 6.1875C18.2097 6.1875 15.1617 6.19109 12.8494 6.50196C10.5857 6.80631 9.28152 7.37706 8.32929 8.32928C7.23324 9.42534 6.7562 10.275 6.4919 11.7896C6.194 13.4968 6.18751 15.9321 6.18751 20.25C6.18751 21.182 5.43199 21.9375 4.50001 21.9375C3.56803 21.9375 2.81251 21.182 2.81251 20.25L2.8125 20.0333C2.8124 15.9852 2.81233 13.2428 3.16714 11.2095C3.56185 8.94747 4.40283 7.48278 5.94281 5.9428C7.62663 4.25898 9.76176 3.51172 12.3997 3.15706C14.9629 2.81244 18.2381 2.81247 22.3731 2.8125Z" fill="#A37FFF"/>
</g>
<path d="M27 24.1875C25.4467 24.1875 24.1875 25.4467 24.1875 27C24.1875 28.5533 25.4467 29.8125 27 29.8125C28.5533 29.8125 29.8125 28.5533 29.8125 27C29.8125 25.4467 28.5533 24.1875 27 24.1875Z" fill="#A37FFF"/>
<path fill-rule="evenodd" clip-rule="evenodd" d="M13.258 31.6345C11.9193 30.0818 11.25 29.3054 11.25 27C11.25 24.6946 11.9193 23.9182 13.258 22.3655C15.9308 19.265 20.4135 15.75 27 15.75C33.5865 15.75 38.0692 19.265 40.742 22.3655C42.0807 23.9182 42.75 24.6946 42.75 27C42.75 29.3054 42.0807 30.0818 40.742 31.6345C38.0692 34.735 33.5865 38.25 27 38.25C20.4135 38.25 15.9308 34.735 13.258 31.6345ZM20.8125 27C20.8125 23.5827 23.5827 20.8125 27 20.8125C30.4173 20.8125 33.1875 23.5827 33.1875 27C33.1875 30.4173 30.4173 33.1875 27 33.1875C23.5827 33.1875 20.8125 30.4173 20.8125 27Z" fill="#A37FFF"/>
</svg>
